<svg width="145" height="39" viewBox="0 0 145 39" fill="none" xmlns="http://www.w3.org/2000/svg">
<path d="M126.133 1.018H19.282a6 6 0 0 0-4.243 1.757L2.95 14.865a6 6 0 0 0 0 8.484l12.09 12.09a6 6 0 0 0 4.242 1.757h106.851a6 6 0 0 0 4.243-1.758l12.089-12.089a6 6 0 0 0 0-8.485L130.376 2.775a6 6 0 0 0-4.243-1.757Z" fill="url(#paint0_linear_296_373)" stroke="#C82A2D"/>
<defs>
<linearGradient id="paint0_linear_296_373" x1="-2" y1="37.6641" x2="116.5" y2="53" gradientUnits="userSpaceOnUse">
<stop stop-color="#C82A2D"/>
<stop offset="1" stop-color="#C82A2D" stop-opacity="0"/>
</linearGradient>
</defs>
</svg>
