<svg className="max-w-full w-full h-auto" fill="none" xmlns="http://www.w3.org/2000/svg" viewBox="0 0 1920 741">
  <path d="m1940.99 1.158-147.03 147.026v68.613l-133.95 133.957 133.95 133.957v66.978l147.03 147.026M-20.99 1.158l147.025 147.026v68.613l133.957 133.957-133.957 133.957v66.978L-20.991 698.715" stroke="#C82A2D"/>
  <path d="m-73.161 607.962 230.253-230.253v-57.564l81.382-81.382 281.862 281.861h575.634m897.19 87.338-230.25-230.253v-57.564l-81.38-81.382-281.87 281.861H824.032" stroke="#C82A2D"/>
  <path d="m65.558 657.246-74.582 74.582c-3.15 3.149-8.535.919-8.535-3.536V662.72a5 5 0 0 1 1.464-3.535l74.582-74.582c3.15-3.15 8.536-.919 8.536 3.536v65.571a5.002 5.002 0 0 1-1.465 3.536ZM1936.09 659.185l-74.58-74.582c-3.15-3.15-8.53-.919-8.53 3.536v65.571c0 1.326.52 2.598 1.46 3.536l74.58 74.582c3.15 3.149 8.54.919 8.54-3.536V662.72c0-1.326-.53-2.597-1.47-3.535Z" fill="#C82A2D"/>
</svg>