<svg width="74" height="74" viewBox="0 0 74 74" fill="none" xmlns="http://www.w3.org/2000/svg">
<rect x="0.155762" y="37.2794" width="51.8063" height="51.8063" rx="10" transform="rotate(-45 0.155762 37.2794)" fill="#C82A2D"/>
<g clip-path="url(#clip0_203_2)">
<path d="M45.5876 42.1406L44.7702 45.8812C44.6554 46.41 44.2151 46.78 43.6994 46.78C34.8298 46.7793 27.6157 39.1644 27.6157 29.8017C27.6157 29.2577 27.9662 28.7923 28.4672 28.6717L32.011 27.8089C32.5271 27.6827 33.0544 27.9655 33.2688 28.4814L34.9043 32.5077C35.0955 32.982 34.9665 33.5345 34.5886 33.8604L32.6958 35.4646C33.8904 38.0333 35.869 40.1218 38.3032 41.3836L39.8529 39.3871C40.1583 38.987 40.6858 38.8486 41.1351 39.054L44.9495 40.78C45.4083 41.0347 45.7071 41.5988 45.5876 42.1406Z" fill="white"/>
</g>
<defs>
<clipPath id="clip0_203_2">
<rect width="18" height="19" fill="white" transform="translate(27.6157 27.7795)"/>
</clipPath>
</defs>
</svg>
