<svg width="19" height="18" viewBox="0 0 19 18" fill="none" xmlns="http://www.w3.org/2000/svg">
<path fill-rule="evenodd" clip-rule="evenodd" d="M9.33725 0.0437012C4.42037 0.0437012 0.397461 4.06661 0.397461 8.98349C0.397461 13.9004 4.42037 17.9233 9.33725 17.9233C14.2541 17.9233 18.277 13.9004 18.277 8.98349C18.277 4.06661 14.2541 0.0437012 9.33725 0.0437012ZM15.5057 5.40757H12.9132C12.645 4.2454 12.198 3.26203 11.6616 2.18925C13.2708 2.81504 14.7011 3.88781 15.5057 5.40757ZM9.33725 1.83166C10.0524 2.90443 10.6782 4.06661 11.0358 5.40757H7.63869C7.99628 4.156 8.62207 2.90443 9.33725 1.83166ZM2.45361 10.7714C2.27482 10.2351 2.18542 9.60927 2.18542 8.98349C2.18542 8.35771 2.27482 7.73192 2.45361 7.19553H5.49314C5.40374 7.82132 5.40374 8.35771 5.40374 8.98349C5.40374 9.60927 5.49314 10.1457 5.49314 10.7714H2.45361ZM3.1688 12.5594H5.76133C6.02953 13.7216 6.47652 14.705 7.0129 15.7777C5.40374 15.1519 3.97338 14.0792 3.1688 12.5594ZM5.76133 5.40757H3.1688C4.06277 3.88781 5.40374 2.81504 7.0129 2.18925C6.47652 3.26203 6.02953 4.2454 5.76133 5.40757ZM9.33725 16.1353C8.62207 15.0625 7.99628 13.9004 7.63869 12.5594H11.0358C10.6782 13.811 10.0524 15.0625 9.33725 16.1353ZM11.3934 10.7714H7.2811C7.1917 10.1457 7.1023 9.60927 7.1023 8.98349C7.1023 8.35771 7.1917 7.82132 7.2811 7.19553H11.4828C11.5722 7.82132 11.6616 8.35771 11.6616 8.98349C11.6616 9.60927 11.4828 10.1457 11.3934 10.7714ZM11.6616 15.7777C12.198 14.7944 12.645 13.7216 12.9132 12.5594H15.5057C14.7011 14.0792 13.2708 15.1519 11.6616 15.7777ZM13.2708 10.7714C13.3602 10.1457 13.3602 9.60927 13.3602 8.98349C13.3602 8.35771 13.2708 7.82132 13.2708 7.19553H16.3103C16.4891 7.73192 16.5785 8.35771 16.5785 8.98349C16.5785 9.60927 16.4891 10.2351 16.3103 10.7714H13.2708Z" fill="#C82A2D"/>
</svg>
